<svg
    xmlns="http://www.w3.org/2000/svg"
    xmlns:xlink="http://www.w3.org/1999/xlink"
    version="1.1"
    x="0px"
    y="0px"
    viewBox="11.872407913208008 11.850000381469727 76.34381866455078 76.25"
    xml:space="preserve"
  >
    <path
      fill="#22c55e"
      d="M14.9,88.1h70.3c2.2,0,3.7-2.3,2.7-4.3L52.7,13.5c-1.1-2.2-4.3-2.2-5.4,0L12.2,83.8C11.2,85.8,12.6,88.1,14.9,88.1z   M74.4,81.5H26.2c-2.5,0-4.1-2.6-3-4.8l0,0c0.6-1.1,1.7-1.8,3-1.8h37.4c2.2,0,3.7-2.3,2.7-4.3L52.7,43.3c-1.1-2.2-4.3-2.2-5.4,0  l-6.9,13.8c-1,2,0.5,4.3,2.7,4.3h9.2c1.3,0,2.4,0.7,3,1.8l0,0c1.1,2.2-0.5,4.8-3,4.8H32.3c-2.2,0-3.7-2.3-2.7-4.3l17.7-35.4  c1.1-2.2,4.3-2.2,5.4,0L77,77.1C78,79.1,76.6,81.5,74.4,81.5z"
    ></path>
  </svg>